<?xml version="1.0" standalone="no"?>
<!DOCTYPE svg PUBLIC "-//W3C//DTD SVG 20010904//EN"
 "http://www.w3.org/TR/2001/REC-SVG-20010904/DTD/svg10.dtd">
<svg version="1.0" xmlns="http://www.w3.org/2000/svg"
 width="546.000000pt" height="546.000000pt" viewBox="0 0 546.000000 546.000000"
 preserveAspectRatio="xMidYMid meet">
<metadata>
Created by potrace 1.14, written by Peter Selinger 2001-2017
</metadata>
<g transform="translate(0.000000,546.000000) scale(0.100000,-0.100000)"
fill="#000000" stroke="none">
<path d="M2745 5406 c-11 -7 -126 -74 -255 -148 -129 -75 -285 -164 -346 -200
-61 -36 -117 -68 -125 -71 -8 -4 -358 -206 -778 -449 l-765 -443 1 -83 c0 -45
3 -85 6 -88 2 -3 209 113 458 257 250 144 469 270 488 281 19 11 208 120 420
242 212 123 400 231 416 240 17 9 37 21 45 26 58 36 444 258 457 262 5 2 76
-36 158 -84 422 -244 854 -493 885 -511 19 -11 136 -78 260 -149 124 -72 374
-216 555 -321 182 -104 356 -205 388 -223 l57 -33 0 89 0 90 -41 25 c-22 15
-57 35 -77 47 -20 11 -136 78 -257 148 -121 70 -240 138 -265 152 -42 24 -231
133 -580 335 -80 46 -154 89 -165 95 -11 7 -101 59 -200 116 -99 58 -196 114
-215 125 -42 24 -327 188 -426 246 -39 22 -73 41 -75 41 -3 0 -13 -6 -24 -14z"/>
<path d="M2754 5060 c-5 -5 -137 -82 -294 -173 -157 -90 -357 -206 -445 -257
-88 -51 -176 -102 -195 -112 -19 -11 -285 -164 -590 -341 -305 -176 -598 -345
-650 -375 -52 -30 -97 -56 -99 -58 -5 -5 -7 -141 -1 -161 4 -17 42 2 280 140
151 88 295 171 320 185 25 14 59 33 75 43 17 10 44 26 60 35 17 9 364 210 773
446 409 236 753 434 766 439 23 11 -1 24 1211 -676 629 -363 998 -576 1048
-604 l58 -33 -3 92 -3 93 -116 67 c-63 37 -135 78 -160 92 -24 14 -159 92
-299 173 -964 557 -1220 705 -1255 725 -22 12 -76 43 -120 69 -44 25 -88 51
-97 56 -10 6 -62 35 -115 66 -135 78 -139 79 -149 69z"/>
<path d="M2720 4686 c-19 -13 -55 -34 -80 -48 -25 -14 -160 -92 -300 -173
-140 -81 -271 -156 -290 -167 -19 -11 -107 -62 -195 -113 -397 -229 -563 -324
-595 -343 -317 -179 -759 -438 -770 -451 -11 -13 -15 -38 -13 -95 1 -43 3 -79
5 -81 2 -2 80 41 173 95 94 55 181 105 195 113 52 28 260 148 975 562 55 32
159 92 230 133 72 41 144 83 160 92 17 10 57 33 90 52 33 19 151 87 263 152
l203 117 142 -82 c78 -45 158 -91 177 -102 19 -11 267 -153 550 -317 653 -377
661 -381 930 -537 391 -226 491 -283 496 -283 2 0 3 41 2 91 l-3 90 -50 28
c-27 16 -249 144 -493 285 -244 141 -462 267 -485 280 -37 21 -211 121 -1035
597 -122 71 -228 129 -235 128 -6 0 -28 -10 -47 -23z"/>
<path d="M2125 3989 c-352 -204 -793 -458 -980 -566 -604 -349 -665 -385 -666
-397 -4 -55 -3 -150 2 -157 5 -9 112 50 534 296 55 32 116 67 135 78 52 29
352 202 455 262 110 64 595 344 656 379 24 13 149 85 277 159 l234 135 56 -33
c132 -76 709 -409 737 -425 17 -9 190 -109 385 -222 550 -318 623 -360 655
-378 17 -9 120 -69 230 -133 110 -64 208 -119 218 -123 15 -5 17 3 17 82 l0
89 -173 99 c-94 54 -208 120 -252 146 -44 26 -98 58 -120 70 -97 54 -514 295
-547 317 -21 12 -40 23 -42 23 -2 0 -51 27 -108 61 -57 34 -121 71 -143 83
-22 13 -168 97 -325 188 -483 279 -586 338 -591 338 -2 -1 -292 -167 -644
-371z"/>
<path d="M2595 3905 c-99 -58 -187 -108 -195 -112 -19 -9 -1913 -1103 -1918
-1108 -7 -6 -7 -156 -1 -167 6 -10 138 63 454 247 81 48 655 379 1195 690 113
65 301 174 418 242 117 67 218 123 225 123 7 0 28 -10 47 -21 19 -12 487 -283
1040 -601 553 -319 1030 -595 1060 -613 30 -18 77 -44 103 -59 l48 -26 -3 92
-3 92 -50 29 c-56 33 -931 539 -985 569 -19 11 -123 71 -230 133 -107 62 -240
138 -295 170 -55 32 -233 134 -395 228 -162 94 -304 176 -315 183 -19 12 -39
3 -200 -91z"/>
<path d="M2160 3304 c-327 -190 -687 -398 -800 -463 -650 -375 -875 -505 -878
-506 -5 -4 -8 -154 -2 -168 4 -12 26 -3 100 40 143 83 585 339 845 488 127 73
313 181 415 240 102 59 353 204 557 322 l373 214 52 -29 c62 -34 1319 -760
1433 -827 42 -25 78 -45 81 -45 2 0 32 -17 66 -38 35 -21 88 -52 118 -69 30
-17 150 -85 265 -153 116 -67 227 -131 248 -141 l37 -19 0 89 0 89 -102 60
c-57 33 -119 69 -138 80 -46 25 -1763 1017 -1981 1144 -36 21 -72 38 -80 37
-8 0 -282 -156 -609 -345z"/>
<path d="M2045 2883 c-396 -228 -740 -427 -765 -441 -25 -14 -57 -33 -72 -43
-14 -11 -29 -19 -33 -19 -4 0 -55 -29 -114 -63 -58 -35 -203 -119 -321 -187
-295 -169 -265 -142 -264 -239 1 -45 3 -84 6 -86 2 -3 53 24 114 59 60 34 312
180 559 323 248 143 470 271 495 285 25 14 287 166 583 337 l539 311 41 -24
c23 -13 140 -81 260 -150 120 -70 239 -139 265 -153 26 -15 126 -72 222 -128
166 -97 795 -460 870 -503 19 -10 76 -43 125 -72 50 -29 108 -62 130 -75 78
-43 111 -63 190 -110 104 -61 183 -105 189 -105 4 0 6 40 6 88 l0 88 -52 30
c-29 17 -201 116 -383 221 -181 105 -413 238 -514 297 -101 58 -184 106 -186
106 -1 0 -55 32 -119 70 -65 39 -119 70 -120 70 -2 0 -97 55 -212 122 -115 67
-227 131 -249 143 -22 13 -134 77 -250 144 -115 66 -212 121 -215 121 -3 0
-329 -188 -725 -417z"/>
<path d="M2545 2819 c-121 -71 -231 -135 -245 -142 -14 -7 -394 -226 -845
-487 -451 -261 -855 -494 -897 -518 -43 -24 -78 -49 -79 -56 -4 -56 0 -169 7
-176 5 -4 26 -18 46 -29 47 -26 37 -20 418 -241 173 -100 333 -192 355 -204
22 -13 153 -88 290 -168 358 -207 903 -522 950 -548 22 -12 81 -47 132 -77
l91 -55 49 27 c26 15 239 138 473 272 233 135 439 254 458 265 18 10 102 58
185 107 84 49 256 148 382 221 127 73 336 193 465 268 129 74 247 143 262 151
27 16 28 18 28 106 l-1 90 -166 95 c-91 52 -182 104 -202 116 -20 12 -214 124
-431 249 -217 125 -510 294 -650 375 -140 81 -271 157 -290 167 -20 11 -92 53
-160 93 -69 40 -141 82 -160 92 -19 11 -80 47 -136 79 -55 33 -103 59 -105 58
-2 0 -103 -58 -224 -130z m152 -188 l73 -42 57 32 c32 18 67 38 77 45 20 14
34 8 134 -53 l33 -21 -143 -82 c-79 -46 -146 -85 -150 -87 -4 -2 -75 35 -158
83 l-151 87 73 42 c40 23 75 41 78 40 3 -1 38 -21 77 -44z m-334 -160 c29 -16
130 -74 226 -130 95 -56 177 -101 182 -101 4 0 109 59 233 130 l226 131 32
-17 c61 -31 109 -67 101 -75 -7 -6 -278 -163 -442 -257 -25 -14 -67 -38 -94
-54 -29 -17 -57 -26 -66 -23 -20 8 -573 325 -584 335 -7 6 113 87 131 90 2 0
26 -13 55 -29z m1305 -223 c9 -8 -56 -50 -255 -165 -148 -85 -275 -159 -283
-164 -8 -5 -92 -53 -187 -108 l-172 -99 -353 204 c-194 112 -360 208 -368 214
-8 5 -52 30 -98 55 -46 26 -82 51 -80 57 2 5 33 26 69 46 l66 36 382 -221 383
-220 206 120 c114 66 227 131 252 145 107 60 286 164 293 172 8 7 112 -45 145
-72z m-1763 -218 c22 -12 226 -130 453 -262 l414 -239 366 212 c202 117 435
251 517 299 83 48 159 92 170 97 16 9 33 3 93 -31 l72 -42 -172 -100 c-94 -54
-192 -111 -217 -125 -25 -15 -118 -68 -206 -119 -88 -51 -264 -152 -392 -226
l-232 -134 -123 71 c-68 40 -141 82 -163 94 -253 145 -912 528 -918 534 -5 5
24 27 64 49 l72 40 81 -48 c45 -26 99 -58 121 -70z m-288 -186 c120 -70 324
-187 453 -262 129 -75 332 -192 450 -260 118 -69 224 -129 235 -134 17 -8 118
47 585 317 311 180 620 359 688 397 l122 70 71 -42 c39 -23 69 -43 67 -45 -4
-4 -148 -88 -923 -535 -302 -174 -560 -322 -573 -329 -21 -11 -40 -3 -195 87
-95 55 -188 109 -207 119 -19 11 -58 34 -86 50 -27 17 -70 41 -95 55 -24 14
-132 76 -239 138 -107 62 -208 121 -225 130 -16 9 -113 65 -214 123 -101 59
-185 107 -187 107 -2 0 -24 13 -49 29 l-45 29 47 28 c45 26 96 54 100 54 0 0
99 -57 220 -126z m-365 -142 c84 -49 227 -132 318 -184 91 -52 396 -229 678
-392 281 -163 517 -296 523 -296 6 0 218 120 472 267 254 146 480 276 502 289
22 12 188 108 370 213 181 105 335 191 341 191 7 0 42 -18 78 -39 l67 -39 -33
-20 c-31 -18 -905 -524 -1098 -635 -47 -26 -101 -58 -120 -69 -374 -216 -571
-328 -579 -328 -5 0 -60 29 -122 65 -61 36 -113 65 -114 65 -1 0 -43 24 -92
54 -49 29 -111 65 -138 81 -48 26 -182 103 -565 325 -102 59 -205 118 -230
132 -25 14 -112 65 -195 113 -164 96 -221 128 -307 177 -32 18 -58 35 -58 38
0 8 122 79 137 80 6 0 81 -40 165 -88z m-337 -159 c39 -22 144 -83 235 -135
91 -53 181 -105 200 -115 19 -11 193 -112 385 -223 193 -112 368 -213 390
-226 22 -12 176 -101 343 -197 l303 -176 252 146 c139 80 266 153 282 163 17
9 194 112 395 227 201 116 388 223 415 238 28 15 57 34 66 41 8 8 18 14 21 14
3 0 126 70 274 156 148 86 276 156 284 156 15 0 140 -70 140 -78 0 -3 -76 -48
-515 -301 -181 -105 -550 -318 -820 -474 -269 -155 -559 -322 -644 -371 -100
-58 -157 -86 -165 -80 -6 5 -103 62 -216 127 -113 65 -248 143 -300 173 -167
97 -463 268 -510 294 -146 83 -566 327 -628 364 -40 24 -74 44 -77 44 -2 0
-39 21 -82 46 -43 26 -94 56 -113 67 -120 68 -191 110 -188 112 2 2 34 22 72
44 l70 40 30 -18 c17 -10 63 -36 101 -58z"/>
</g>
</svg>
