<svg xmlns="http://www.w3.org/2000/svg" width="61" height="80" viewBox="0 0 61 80">
    <g fill="none" fill-rule="evenodd">
        <g>
            <g>
                <g>
                    <g>
                        <path fill="#FFF" d="M9.844 64.573c.345 0 .196-.438.392-.438.121 0 .13.084.13.299v.185c.01 1.223.038 1.894.038 1.997 0 .121-.047.187-.121.187-.187 0-.094-.41-.523-1.11-.55-.895-1.315-1.39-1.95-1.39-.876 0-1.351 1.129-1.351 3.348 0 1.857.372 2.714 1.352 2.714.644 0 1.334-.42 1.94-1.23.466-.617.373-1.017.56-1.017.074 0 .102.055.102.176 0 1.194.01 1.848.01 1.969 0 .15-.02.215-.13.215-.16 0-.057-.364-.365-.364-.336 0-1.091.493-2.09.493-1.995 0-3.413-1.36-3.413-3.198 0-1.95 1.474-3.34 3.358-3.34 1.082 0 1.763.504 2.061.504M14.998 64.19c.13 0 .196.029.196.132 0 .167-.214.111-.42.223-.261.14-.28.392-.28.784v4.17c0 .493.01.736.57.736.68 0 1.548-.504 2.042-1.38.336-.597.28-.924.438-.924.066 0 .113.065.113.103v.009l-.383 2.434h-5.168c-.13 0-.195-.018-.195-.121 0-.168.195-.112.41-.224.262-.14.28-.4.28-.792v-4.244c0-.29-.112-.485-.326-.579-.187-.084-.364-.037-.364-.195 0-.103.065-.131.195-.131h2.892zM38.994 64.19c.13 0 .196.029.196.132 0 .167-.215.111-.42.223-.261.14-.28.392-.28.784v4.01c0 .392.019.653.28.793.215.112.42.056.42.224 0 .103-.066.121-.196.121h-2.892c-.13 0-.196-.018-.196-.121 0-.168.196-.112.41-.224.262-.14.28-.4.28-.792v-4.244c0-.29-.111-.485-.326-.579-.186-.084-.364-.037-.364-.195 0-.103.066-.131.196-.131h2.892zM42.544 67.334c0 2.024.475 3.031 1.427 3.031.95 0 1.418-1.007 1.418-3.03 0-2.025-.467-3.032-1.418-3.032-.952 0-1.427 1.007-1.427 3.031m4.878 0c0 1.893-1.418 3.273-3.451 3.273-2.033 0-3.46-1.38-3.46-3.273 0-1.893 1.417-3.264 3.46-3.264s3.451 1.38 3.451 3.264M50.966 64.19l3.06 3.676v-2.024c0-.802-.225-1.166-.83-1.343-.188-.056-.346-.028-.346-.177 0-.103.065-.131.195-.131h2.025c.13 0 .196.028.196.13 0 .16-.178.112-.373.196-.43.196-.616.616-.625 1.334l-.029 4.626c0 .084-.019.131-.084.131-.037 0-.055 0-.074-.018l-4.393-5.252v3.181c0 .895.15 1.399.606 1.604.27.121.495.065.495.233 0 .103-.065.121-.197.121H48.55c-.13 0-.196-.018-.196-.121 0-.168.215-.112.485-.233.457-.205.606-.709.606-1.604l.02-3.349-.346-.373c-.42-.466-.849-.233-.849-.475 0-.103.066-.131.196-.131h2.5zM29.965 67.176v-2.742h.429c.578 0 .802.326.802 1.352 0 .998-.233 1.39-.896 1.39h-.335zm4.02 2.975c-.178-.047-.28-.187-.392-.41l-.672-1.343c-.356-.714-.77-.95-1.5-1.04 1.183-.156 1.78-.682 1.78-1.479l-.002-.051h.002v-.076H33.2l.001-.022c0-.932-.727-1.539-2.098-1.539h-3.451c-.131 0-.196.028-.196.13 0 .159.177.113.364.196.214.094.326.29.326.579 0 .037.01.112.01.233v4.01c0 .392-.02.653-.28.794-.215.111-.42.055-.42.223 0 .103.065.122.196.122h2.807c.13 0 .196-.019.196-.122 0-.168-.205-.112-.42-.223-.261-.14-.27-.402-.27-.794v-1.93h.196c.298 0 .41.037.579.401l1.212 2.668h2.266c.13 0 .196-.019.196-.122 0-.149-.159-.13-.429-.205zM20.907 67.996l.905-2.256.849 2.256h-1.754zm4.766 2.183c-.251-.084-.363-.224-.512-.579l-2.276-5.577c-.015-.029-.029-.052-.046-.068l-.008-.006c-.006-.005-.012-.01-.019-.013-.01-.003-.018-.006-.025-.006h-.003-.002l-.003.001c-.006 0-.012 0-.018.004l-1.46.834.002.001c-.054.033-.082.071-.082.117 0 .13.288.075.42.4.012.038.03.08.05.132l-1.371 3.379c-.299.728-.7 1.185-1.231 1.38-.16.057-.308.03-.308.178 0 .103.065.122.196.122h2.173c.13 0 .187-.019.187-.122 0-.149-.159-.121-.308-.177-.364-.14-.541-.41-.541-.84 0-.14.028-.307.093-.475l.233-.635h1.968l.476 1.297c.065.177.112.317.112.4 0 .365-.662.178-.662.43 0 .103.065.122.196.122h2.89c.132 0 .187-.019.187-.122 0-.14-.14-.121-.308-.177zM9.048 73.693c.067 0 .095.014.095.06 0 .076-.113.043-.216.1-.141.075-.15.201-.15.404v.872h1.187v-.989c0-.151-.061-.255-.178-.301-.09-.033-.189-.014-.189-.085 0-.047.034-.06.1-.06h1.19c.067 0 .1.013.1.06 0 .075-.118.042-.22.099-.142.075-.15.201-.15.404v2.04c0 .197.008.328.15.403.102.052.22.024.22.099 0 .052-.033.056-.1.056h-1.19c-.066 0-.1-.004-.1-.056 0-.075.118-.047.222-.099.14-.07.145-.201.145-.403v-1.065H8.777v1.065c0 .197.009.328.15.403.103.052.216.024.216.099 0 .052-.028.056-.095.056H7.853c-.067 0-.1-.004-.1-.056 0-.075.119-.047.222-.099.14-.07.15-.201.15-.403V74.14c0-.151-.066-.255-.183-.301-.09-.033-.188-.014-.188-.085 0-.047.032-.06.099-.06h1.195zM12.33 75.274c0 1.019.333 1.544.915 1.544.582 0 .91-.525.91-1.544 0-1.018-.333-1.544-.91-1.544-.582 0-.915.526-.915 1.544m2.562 0c0 .948-.69 1.647-1.647 1.647-.394 0-.737-.113-1.023-.333-.399-.305-.628-.77-.628-1.314 0-.947.69-1.642 1.65-1.642.958 0 1.648.695 1.648 1.642M16.85 73.693c.065 0 .095.014.095.06 0 .076-.118.043-.221.1-.141.075-.146.201-.146.404v1.726c0 .497.31.793.751.793.582 0 .863-.333.863-1v-1.154c0-.399-.075-.651-.277-.759-.112-.062-.253-.03-.253-.11 0-.046.033-.06.098-.06h.962c.066 0 .098.014.098.06 0 .08-.135.048-.248.11-.207.108-.281.36-.281.759v1.192c0 .732-.394 1.107-1.108 1.107-.802 0-1.285-.342-1.285-.98V74.14c0-.151-.06-.255-.179-.301-.088-.033-.187-.014-.187-.085 0-.047.033-.06.099-.06h1.22zM21.244 73.806c.117 0 .084-.15.15-.15.056 0 .052.085.066.263.032.389.065.656.065.807 0 .056-.009.083-.042.083-.061 0-.066-.131-.174-.365-.216-.47-.516-.713-.853-.713-.33 0-.54.22-.54.474 0 .286.244.44.694.61.648.238 1.112.413 1.112 1.037 0 .591-.516 1.069-1.215 1.069-.427 0-.727-.183-.878-.183-.159 0-.13.15-.21.15-.052 0-.057-.235-.057-.756v-.515c0-.066.014-.103.047-.103.085 0 .056.187.193.51.22.526.524.794.91.794.361 0 .638-.268.638-.591 0-.46-.347-.601-.916-.802-.562-.197-.844-.502-.844-.901 0-.483.446-.897 1.07-.897.395 0 .67.179.784.179M23.793 73.693c.065 0 .094.014.094.06 0 .076-.118.043-.221.1-.14.075-.145.201-.145.404v2.04c0 .197.005.328.145.403.103.052.22.024.22.099 0 .052-.028.056-.093.056h-1.22c-.066 0-.098-.004-.098-.056 0-.075.112-.047.216-.099.14-.07.15-.201.15-.403V74.14c0-.151-.06-.255-.18-.301-.088-.033-.186-.014-.186-.085 0-.047.032-.06.098-.06h1.22zM25.891 73.693l1.66 2.186.005-1.224c0-.436-.078-.684-.323-.802-.127-.061-.235-.043-.235-.113 0-.028.024-.047.071-.047h1.036c.048 0 .071.019.071.047 0 .066-.108.052-.22.113-.221.112-.296.37-.296.807l-.01 2.205c0 .033-.013.056-.032.056-.019 0-.037-.01-.047-.023l-2.036-2.637.005 1.557c0 .48.047.747.286.873.121.066.258.038.258.117 0 .037-.023.047-.076.047h-1.055c-.052 0-.074-.013-.074-.047 0-.075.125-.051.243-.112.244-.131.296-.403.3-.878l.01-1.642-.17-.197c-.196-.23-.408-.126-.408-.234 0-.038.028-.052.085-.052h.952zM31.95 75.377c.052 0 .075.024.075.052 0 .075-.09.047-.183.08-.103.033-.154.112-.154.243l-.01 1.103h-.206l-.146-.249c-.319.212-.657.315-1.032.315-.933 0-1.646-.68-1.646-1.604 0-.976.717-1.685 1.67-1.685.492 0 .82.24.956.24.17 0 .103-.221.193-.221.042 0 .056.028.056.09.014.75.019 1.134.019 1.144 0 .065-.014.098-.052.098-.08 0-.051-.196-.211-.53-.23-.47-.563-.717-.962-.717-.6 0-.938.553-.938 1.609 0 .957.347 1.469.934 1.469.488 0 .713-.268.713-.808 0-.263-.033-.4-.16-.469-.126-.07-.258-.033-.258-.108 0-.028.024-.052.066-.052h1.276zM37.17 75.377c.052 0 .075.024.075.051 0 .075-.089.047-.183.08-.103.033-.154.112-.154.244l-.01 1.102h-.206l-.145-.249c-.32.212-.657.315-1.032.315-.933 0-1.646-.68-1.646-1.604 0-.976.717-1.684 1.67-1.684.492 0 .82.24.956.24.169 0 .103-.221.192-.221.043 0 .056.028.056.089.015.75.02 1.135.02 1.144 0 .066-.014.099-.052.099-.08 0-.052-.197-.212-.53-.23-.47-.562-.717-.96-.717-.6 0-.939.553-.939 1.608 0 .956.347 1.468.933 1.468.488 0 .714-.267.714-.807 0-.262-.034-.398-.16-.468-.127-.071-.258-.034-.258-.109 0-.027.024-.051.066-.051h1.275zM38.864 75.213h.23c.441 0 .656-.23.656-.7 0-.473-.201-.716-.6-.716h-.286v1.416zm.455-1.52c.75 0 1.144.328 1.144.788 0 .45-.412.774-1.158.774h-.06v.02c.6.018.829.153 1.059.628l.276.557c.174.357.47.234.47.347 0 .032-.029.047-.08.047h-.906l-.557-1.168c-.132-.276-.235-.37-.545-.37h-.098v.98c0 .197.009.328.15.403.103.051.216.024.216.099 0 .052-.028.056-.094.056h-1.195c-.067 0-.1-.004-.1-.056 0-.075.118-.048.221-.099.14-.07.15-.201.15-.403V74.14c0-.15-.065-.253-.182-.3-.09-.033-.188-.014-.188-.085 0-.046.032-.06.099-.06h1.378zM42.194 75.274c0 1.017.333 1.543.915 1.543.581 0 .91-.526.91-1.543 0-1.018-.333-1.544-.91-1.544-.582 0-.915.526-.915 1.544m2.56 0c0 .947-.689 1.645-1.645 1.645-.394 0-.737-.112-1.023-.332-.398-.305-.628-.769-.628-1.313 0-.947.69-1.641 1.65-1.641.957 0 1.647.694 1.647 1.641M46.74 73.693c.065 0 .093.014.093.062 0 .074-.117.041-.22.098-.141.075-.145.201-.145.404v1.725c0 .497.309.792.75.792.581 0 .863-.332.863-.998v-1.154c0-.399-.076-.651-.277-.76-.113-.06-.253-.028-.253-.107 0-.048.033-.062.098-.062h.962c.065 0 .098.014.098.062 0 .08-.136.046-.248.107-.207.109-.282.361-.282.76v1.191c0 .731-.393 1.107-1.107 1.107-.802 0-1.284-.343-1.284-.98V74.139c0-.15-.06-.254-.179-.3-.089-.033-.187-.014-.187-.084 0-.048.033-.062.098-.062h1.22zM50.365 75.344c.061.005.118.005.17.005.501 0 .688-.225.688-.783 0-.6-.215-.77-.688-.77h-.17v1.548zm.343-1.65c.802 0 1.228.356 1.228.876 0 .545-.459.882-1.341.882-.07 0-.145 0-.23-.005v.854c0 .206.01.342.146.403.126.056.29.005.29.094 0 .047-.028.056-.084.056h-1.275c-.066 0-.099-.004-.099-.056 0-.075.117-.047.22-.099.141-.07.15-.201.15-.403v-2.157c0-.15-.065-.254-.182-.3-.09-.033-.188-.014-.188-.084 0-.048.033-.062.099-.062h1.266zM29.845 29.645L31.437 30.564 29.843 31.484zM32.993 31.462L34.585 32.381 29.843 35.119 29.843 33.281zM36.141 33.279L37.732 34.199 29.843 38.754 29.843 36.915zM39.288 35.097L40.88 36.016 29.843 42.388 29.843 40.55zM42.436 36.914L44.028 37.833 29.843 46.023 29.843 44.185zM45.584 38.731L47.175 39.65 29.842 49.657 29.842 47.819zM48.732 40.549L50.323 41.468 29.843 53.292 29.843 51.454zM29.843 55.089L51.879 42.366 53.471 43.285 29.845 56.926 29.843 56.925z" transform="translate(-438 -773) translate(56 387) translate(202 386) translate(180)"/>
                        <path fill="#FFF" d="M34.585 26.908L34.585 32.382 32.993 31.462 32.993 27.827zM37.732 25.091L37.732 34.198 36.141 33.279 36.141 26.01zM40.88 23.274L40.88 36.016 39.288 35.097 39.288 24.193zM44.028 21.456L44.028 37.833 42.436 36.914 42.436 22.376zM47.175 19.639L47.175 39.65 45.584 38.731 45.584 20.559zM50.323 17.821L50.323 41.468 48.732 40.549 48.732 18.741zM53.471 16.005L53.471 43.285 51.879 42.366 51.879 16.923zM31.437 28.726L31.437 30.563 29.845 29.645zM7.811 44.204L7.811 16.923 7.107 16.417 6.219 16.005 6.219 43.285zM10.959 46.021L10.959 18.74 10.275 18.246 9.367 17.822 9.367 45.103zM14.106 47.839L14.106 20.558 13.397 20.048 12.515 19.639 12.515 46.92zM17.254 49.656L17.254 22.375 16.719 21.699 15.663 21.457 15.663 48.737zM20.402 51.474L20.402 24.192 19.715 23.696 18.81 23.274 18.81 50.555zM23.55 53.291L23.55 26.01 22.815 25.486 21.958 25.091 21.958 52.372zM26.698 55.108L26.698 27.827 25.94 27.29 25.106 26.909 25.106 54.189zM29.845 56.926L29.845 29.645 29.131 29.132 28.253 28.726 28.253 56.006z" transform="translate(-438 -773) translate(56 387) translate(202 386) translate(180)"/>
                        <path fill="#FFF" d="M31.437 3.283L7.811 16.924 6.219 16.004 29.845 2.364zM34.585 5.1L10.959 18.741 9.367 17.822 32.993 4.181zM37.732 6.918L14.107 20.558 12.515 19.639 36.141 5.998zM40.88 8.735L17.254 22.376 15.662 21.456 39.288 7.816zM44.028 10.552L20.402 24.193 18.81 23.274 42.436 9.633zM47.175 12.37L23.55 26.01 21.958 25.091 45.584 11.45zM50.323 14.187L26.697 27.827 25.106 26.908 48.732 13.268zM53.471 16.005L29.845 29.645 28.253 28.726 51.879 15.085z" transform="translate(-438 -773) translate(56 387) translate(202 386) translate(180)"/>
                        <path d="M0 0H60.215V80H0z" transform="translate(-438 -773) translate(56 387) translate(202 386) translate(180)"/>
                    </g>
                </g>
            </g>
        </g>
    </g>
</svg>
