<svg xmlns="http://www.w3.org/2000/svg" width="220" height="82" viewBox="0 0 220 82">
    <g fill="none" fill-rule="evenodd">
        <g>
            <g>
                <path fill="#FFF" d="M36.196 1.5L2.358 21.035 2.358 23.669 36.196 4.133 70.035 23.669 70.035 21.035z" transform="translate(-104 -1019) translate(104 1019)"/>
                <path fill="#FFF" d="M2.358 26.242L2.358 28.874 36.196 9.338 70.035 28.874 70.035 26.242 36.196 6.706z" transform="translate(-104 -1019) translate(104 1019)"/>
                <path fill="#FFF" d="M2.358 31.447L2.358 34.08 36.196 14.544 70.035 34.08 70.035 31.447 36.196 11.911z" transform="translate(-104 -1019) translate(104 1019)"/>
                <path fill="#FFF" d="M2.358 36.653L2.358 39.286 36.196 19.75 70.035 39.286 70.035 36.653 36.196 17.117z" transform="translate(-104 -1019) translate(104 1019)"/>
                <path fill="#FFF" d="M2.358 41.859L2.358 44.492 36.196 24.955 70.035 44.492 70.035 41.859 36.196 22.323z" transform="translate(-104 -1019) translate(104 1019)"/>
                <path fill="#FFF" d="M2.358 47.065L2.358 49.697 36.196 30.16 70.035 49.697 70.035 47.065 36.196 27.529z" transform="translate(-104 -1019) translate(104 1019)"/>
                <path fill="#FFF" d="M2.358 52.27L2.358 54.903 36.196 35.366 70.035 54.903 70.035 52.27 36.196 32.735z" transform="translate(-104 -1019) translate(104 1019)"/>
                <path fill="#FFF" d="M65.525 57.505l2.229 1.287-31.558 18.22-31.558-18.22 2.229-1.287L36.196 74.44l29.329-16.934zm-4.508-2.603l2.229 1.287-27.05 15.617L9.146 56.19l2.229-1.287 24.82 14.332 24.822-14.332zM56.509 52.3l2.229 1.286L36.196 66.6 13.654 53.586l2.228-1.287 20.314 11.728L56.509 52.3zm-4.507-2.602l2.227 1.287-18.033 10.411-18.033-10.41 2.229-1.288 15.804 9.124 15.806-9.124zm-4.51-2.603l2.229 1.286-13.525 7.81-13.525-7.81 2.229-1.286 11.296 6.522 11.297-6.522zm-4.507-2.604l2.227 1.288-9.016 5.206-9.017-5.206 2.229-1.288 6.788 3.92 6.789-3.92zm-4.51-2.6l2.23 1.285-4.51 2.603-4.507-2.603 2.228-1.286 2.28 1.315 2.279-1.315zM2.358 57.475v2.633l33.838 19.536L70.035 60.11v-2.633L36.195 37.94 2.359 57.476zM93.452 24.842c.326 0 .49.07.49.327 0 .421-.536.281-1.05.56-.651.35-.7.98-.7 1.96v10.42c0 1.235.027 1.84 1.424 1.84 1.7 0 3.87-1.258 5.105-3.449.839-1.492.699-2.309 1.095-2.309.164 0 .282.164.282.256v.024l-.958 6.084H86.226c-.327 0-.491-.046-.491-.304 0-.42.49-.279 1.028-.557.65-.35.699-1.003.699-1.984V27.104c0-.722-.281-1.21-.816-1.444-.465-.21-.911-.093-.911-.49 0-.258.164-.328.49-.328h7.227zM135.95 24.842c1.188 0 1.308-.466 1.492-.466.046 0 .164.116.164.164l1.072 5.525v.046c0 .118-.093.257-.233.257-.373 0-.281-.699-.91-1.748-1.024-1.7-2.54-2.82-4.357-3.17v12.26c0 1.051.068 1.728.673 1.96.747.302 1.26.184 1.26.581 0 .28-.186.304-.513.304h-7.6c-.35 0-.512-.025-.512-.304 0-.397.489-.279 1.259-.58.582-.233.676-.91.676-1.96V25.45c-1.82.35-3.311 1.443-4.36 3.17-.63 1.026-.536 1.747-.91 1.747-.14 0-.231-.139-.231-.257v-.046l1.07-5.525c0-.048.118-.164.163-.164.188 0 .305.466 1.492.466h10.306zM151.018 24.842c.326 0 .491.07.491.327 0 .421-.537.281-1.051.56-.651.35-.699.98-.699 1.96V37.71c0 .981.048 1.634.699 1.984.537.278 1.051.137 1.051.557 0 .258-.165.304-.491.304h-7.226c-.326 0-.489-.046-.489-.304 0-.42.489-.279 1.024-.557.653-.35.701-1.003.701-1.984V27.104c0-.722-.281-1.21-.816-1.444-.465-.21-.909-.093-.909-.49 0-.258.163-.328.489-.328h7.226zM162.99 24.842l4.103 9.956 3.824-9.956h5.29c.327 0 .49.07.49.327 0 .421-.535.281-1.047.56-.655.35-.68.98-.68 1.96V37.71c0 .981.025 1.634.68 1.984.535.278 1.047.137 1.047.557 0 .258-.163.304-.49.304h-6.783c-.326 0-.49-.046-.49-.304 0-.42.49-.279 1.026-.557.65-.35.699-1.003.699-1.984V27.22l-5.221 13.31c-.07.187-.094.35-.256.35-.212 0-.257-.092-.326-.279l-5.48-13.38v8.438c0 2.24.374 3.497 1.514 4.011.676.302 1.238.161 1.238.581 0 .258-.163.304-.491.304h-5.105c-.327 0-.49-.046-.49-.304 0-.42.538-.279 1.214-.58 1.142-.515 1.514-1.773 1.514-4.012v-9.067c-.676-1.494-2.096-.77-2.096-1.423 0-.257.16-.327.488-.327h5.828zM193.802 24.842l1.446 5.131c.023.046.023.092.023.138 0 .164-.116.257-.258.257-.418 0-.44-.885-1.21-1.934-1.447-1.984-3.476-2.984-6.017-2.984h-.465v6.481h.233c1.166 0 2.447-.747 3.1-1.983.514-.977.301-1.63.721-1.63.12 0 .234.14.234.255v7.623c0 .187-.139.327-.279.327-.395 0-.233-.582-.559-1.493-.583-1.607-1.935-2.518-3.24-2.518h-.21v5.597c0 1.258.093 1.863 1.562 1.863 2.422 0 4.451-1.28 5.69-3.566.698-1.304.675-2.215 1.071-2.215.161 0 .28.164.28.256v.024l-1.238 6.084H181.54c-.327 0-.489-.046-.489-.304 0-.42.512-.279 1.051-.557.651-.35.7-1.003.7-1.984V27.69c0-.306-.026-.493-.026-.586 0-.722-.279-1.21-.816-1.444-.466-.21-.909-.093-.909-.49 0-.258.162-.328.49-.328h12.262zM215.975 39.74c-.443-.116-.699-.466-.979-1.027l-1.678-3.355c-.893-1.786-1.93-2.376-3.749-2.597 2.952-.392 4.45-1.707 4.45-3.7 0-.042-.006-.083-.008-.125l.006-.001v-.19h-.004c0-.02.004-.036.004-.055 0-2.332-1.818-3.846-5.246-3.846h-8.625c-.324 0-.489.07-.489.327 0 .396.443.28.909.488.535.235.815.722.815 1.445 0 .094.024.28.024.583v10.025c0 .979-.046 1.63-.7 1.98-.534.28-1.048.14-1.048.56 0 .259.165.303.489.303h7.017c.327 0 .49-.044.49-.303 0-.42-.514-.28-1.049-.56-.653-.35-.677-1.001-.677-1.98v-4.826h.49c.746 0 1.025.093 1.446 1l3.03 6.669h5.665c.326 0 .49-.044.49-.303 0-.37-.397-.326-1.073-.512zm-10.048-7.437V25.45h1.074c1.444 0 2.003.815 2.003 3.379 0 2.494-.584 3.473-2.238 3.473h-.839zM120.156 39.81c-.631-.21-.91-.558-1.281-1.445l-5.69-13.943c-.035-.068-.07-.128-.114-.17-.005-.008-.013-.009-.02-.014-.016-.012-.03-.024-.046-.032-.023-.009-.046-.013-.061-.017l-.01.002h-.006s-.003.004-.005.004c-.016 0-.031 0-.046.01l-3.65 2.085.003.002c-.134.082-.202.178-.202.29 0 .328.72.187 1.047 1 .03.095.076.202.126.33l-3.426 8.448c-.746 1.817-1.75 2.961-3.077 3.45-.396.14-.77.071-.77.441 0 .258.166.306.49.306h5.432c.327 0 .466-.048.466-.306 0-.37-.396-.3-.77-.44-.91-.35-1.352-1.028-1.352-2.1 0-.349.07-.77.233-1.188l.583-1.586h4.918l1.19 3.24c.162.443.28.795.28 1.005 0 .907-1.655.441-1.655 1.07 0 .257.164.305.49.305h7.228c.326 0 .465-.048.465-.306 0-.347-.35-.3-.77-.44zm-11.911-5.455l2.259-5.64 2.123 5.64h-4.382zM89.827 51.557c-.385 0-.734.197-1.084.617-.232.28-.454.664-.662 1.165-.338.802-.478 1.49-.478 1.965 0 .734.444 1.2 1.106 1.2.534 0 1-.312 1.374-.92.43-.71.744-1.804.744-2.713 0-.836-.384-1.314-1-1.314zm-1.678 1.187c.536-1.023 1.177-1.526 1.934-1.526.989 0 1.779.873 1.779 2.108 0 .804-.278 1.558-.836 2.248-.605.745-1.385 1.118-2.271 1.118-1.186 0-1.98-.828-1.98-1.852 0-.28.025-.548.083-.804l.93-4.367c.048-.218.06-.37.06-.418 0-.509-.734-.407-.734-.58 0-.188.756-.037 2.013-.512l-.978 4.585zM95.76 56.167c.92-1.256 1.455-2.108 1.455-2.736 0-.407-.104-.731-.29-.964-.164-.21-.36-.396-.36-.713 0-.311.254-.546.546-.546.406 0 .745.42.745 1.072 0 1.081-.745 2.466-2.176 4.273-1.293 1.614-2.342 2.442-3.33 2.442-.688 0-1.096-.325-1.096-.767 0-.28.281-.547.631-.547.23 0 .464.116.64.337.128.161.198.466.617.466.196 0 .604-.186 1.058-.584.512-.44.758-.81.758-1.07 0-.08-.036-.21-.094-.371l-1.21-3.809c-.117-.383-.29-.58-.456-.58-.184 0-.372.22-.535.663-.15.397-.104.653-.244.653-.046 0-.093-.047-.093-.114 0-.178.105-.667.383-1.19.305-.584.711-.874.99-.874.386 0 .63.303.828.943l1.233 4.016zM106.809 49.124c.478 0 .268-.593.5-.593.129 0 .14.209.14.663v.875c0 .895.011 1.398.011 1.5 0 .152-.034.221-.128.221-.209 0-.093-.56-.489-1.361-.522-1.07-1.43-1.69-2.362-1.69-1.455 0-2.398 1.386-2.398 3.992 0 2.4.918 3.715 2.364 3.715 1.023 0 1.944-.603 2.478-1.616.396-.77.234-1.305.467-1.305.081 0 .116.081.116.221v1.314c0 1.108-.012 1.584-.176 1.584-.15 0-.15-.545-.523-.545-.338 0-1.095.582-2.399.582-2.164 0-3.83-1.703-3.83-3.994 0-.99.292-1.875.85-2.608.77-1 1.888-1.559 3.027-1.559 1.223 0 1.968.604 2.352.604M108.673 48.82c-.21-.08-.384-.06-.384-.161 0-.196.723-.106 2.108-.71v7.437c0 .583.174.898.698.898.047 0 .117.058.117.128 0 .092-.105.103-.28.103H108.475c-.08 0-.153-.055-.153-.114 0-.06.082-.117.128-.117.512 0 .688-.315.688-.898V49.66c0-.488-.105-.7-.466-.84M114.196 53.944c-.827.36-1.106.65-1.106 1.338 0 .593.21.898.617.898.315 0 .79-.212 1.279-.63v-1.945l-.79.339zm2 1.757c0 .315.072.466.223.466.349 0 .535-.374.652-.374.047 0 .07.027.07.07 0 .21-.663.816-1.282.816-.487 0-.813-.314-.873-.848-.744.557-1.385.837-1.932.837-.732 0-1.221-.488-1.221-1.083 0-.63.443-1.071 1.407-1.477l1.746-.735v-1.211c0-.464-.022-.708-.36-.708-.524 0-1.047.28-1.164.777-.14.608-.267 1.235-.932 1.235-.324 0-.513-.208-.513-.523 0-.325.222-.686.688-1.013.664-.465 1.457-.721 2.2-.721.792 0 1.292.419 1.292 1.185V55.7zM120.36 56.284c.046 0 .117.06.117.128 0 .094-.105.105-.28.105h-2.444c-.082 0-.151-.057-.151-.117 0-.056.069-.116.116-.116.512 0 .7-.315.7-.896V52.92c0-.49-.108-.7-.466-.837-.21-.082-.386-.05-.386-.154 0-.186.698-.116 2.084-.721v1.595c.338-1.05.909-1.595 1.549-1.595.466 0 .767.279.767.71 0 .36-.29.617-.56.617-.451 0-.557-.374-.872-.374-.43 0-.861.653-.861 1.934v1.292c0 .58.164.896.687.896M124.641 49.72c0 .418-.36.744-.745.744-.396 0-.734-.36-.734-.745 0-.384.314-.745.734-.745.407 0 .745.336.745.745zm-1.944 6.795c-.083 0-.152-.055-.152-.114 0-.059.07-.117.117-.117.512 0 .697-.315.697-.898V52.92c0-.49-.105-.699-.466-.838-.208-.082-.382-.048-.382-.15 0-.199.722-.119 2.107-.725v4.18c0 .582.162.897.686.897.045 0 .116.058.116.128 0 .092-.105.103-.279.103h-2.444zM127.15 53.944c0 1.663.524 2.526 1.457 2.526.94 0 1.455-.85 1.455-2.526 0-1.664-.525-2.527-1.455-2.527-.933 0-1.456.85-1.456 2.527m4.248 0c0 1.57-1.151 2.735-2.792 2.735-1.63 0-2.783-1.165-2.783-2.735 0-1.572 1.153-2.735 2.783-2.735 1.629 0 2.792 1.163 2.792 2.735M137.29 55.387c0 .582.174.896.698.896.046 0 .117.06.117.13 0 .092-.105.103-.28.103h-2.41c-.082 0-.153-.057-.153-.114 0-.06.07-.119.118-.119.513 0 .698-.314.698-.896v-2.652c0-.62-.256-.922-.79-.922-.374 0-.886.208-1.41.665v2.91c0 .581.176.895.699.895.046 0 .117.06.117.13 0 .092-.105.103-.28.103h-2.41c-.081 0-.151-.057-.151-.114 0-.06.08-.119.129-.119.512 0 .686-.314.686-.896v-2.466c0-.49-.106-.699-.466-.839-.21-.082-.383-.049-.383-.152 0-.188.686-.126 2.06-.722v.952c.815-.626 1.49-.952 2.142-.952.862 0 1.269.491 1.269 1.491v2.688zM143.123 52.477v2.68c0 .463.012.767.302.965.302.196.664.045.664.28 0 .08-.059.113-.175.113h-2.91c-.115 0-.175-.033-.175-.114 0-.209.291-.095.594-.247.339-.162.373-.487.373-.998v-5.124c0-.464-.023-.779-.302-.964-.304-.199-.666-.048-.666-.268 0-.094.06-.13.177-.13h2.909c.117 0 .175.048.175.13 0 .208-.292.082-.606.23-.338.164-.36.49-.36 1.002v2.21h3.19v-2.21c0-.464-.023-.779-.303-.964-.302-.199-.663-.048-.663-.268 0-.094.058-.13.172-.13h2.912c.117 0 .173.048.173.13 0 .208-.29.082-.603.23-.338.164-.36.49-.36 1.002v5.124c0 .464.01.768.3.966.303.196.663.045.663.28 0 .08-.056.113-.173.113h-2.912c-.114 0-.173-.033-.173-.114 0-.209.291-.095.594-.247.339-.162.373-.487.373-.998v-2.679h-3.19zM150.225 53.944c0 1.663.523 2.526 1.456 2.526.943 0 1.455-.85 1.455-2.526 0-1.664-.523-2.527-1.455-2.527-.933 0-1.456.85-1.456 2.527m4.248 0c0 1.57-1.149 2.735-2.792 2.735-1.629 0-2.78-1.165-2.78-2.735 0-1.572 1.151-2.735 2.78-2.735 1.63 0 2.792 1.163 2.792 2.735M155.232 52.083c-.208-.082-.396-.048-.396-.152 0-.188.7-.127 2.073-.723v3.936c0 .627.243.942.767.942.362 0 .885-.21 1.422-.676v-2.488c0-.491-.105-.7-.466-.84-.211-.081-.383-.047-.383-.151 0-.188.685-.127 2.058-.723v3.759c0 .49.094.687.466.828.21.08.397.058.397.163 0 .186-.7.128-2.072.723v-.967c-.816.628-1.492.977-2.132.977-.872 0-1.266-.5-1.266-1.512v-2.258c0-.49-.108-.699-.468-.838M165.575 52.965c0 .117-.034.174-.105.174-.162 0-.103-.336-.35-.778-.335-.619-.848-.93-1.361-.93-.522 0-.883.311-.883.721 0 .56.569.755 1.594 1.21.943.416 1.478.71 1.478 1.573 0 1-.84 1.745-2.246 1.745-.641 0-1.258-.118-1.794-.328-.012-.988-.045-1.58-.045-1.792 0-.104.033-.15.104-.15.15 0 .139.278.325.721.384.873.933 1.316 1.679 1.316.615 0 1.01-.36 1.01-.873 0-.525-.405-.78-1.21-1.118-1.07-.453-1.851-.769-1.851-1.699 0-.85.744-1.549 1.922-1.549.499 0 1.059.105 1.687.302.012.804.046 1.293.046 1.455M168.564 49.72c0 .418-.361.744-.745.744-.396 0-.734-.36-.734-.745 0-.384.316-.745.734-.745.409 0 .745.336.745.745zm-1.944 6.795c-.081 0-.152-.055-.152-.114 0-.059.07-.117.118-.117.51 0 .698-.315.698-.898V52.92c0-.49-.105-.699-.466-.838-.208-.082-.384-.048-.384-.15 0-.199.722-.119 2.107-.725v4.18c0 .582.165.897.688.897.045 0 .116.058.116.128 0 .092-.105.103-.281.103h-2.444zM175.404 55.387c0 .582.176.896.699.896.048 0 .116.06.116.13 0 .092-.105.103-.28.103H173.53c-.08 0-.151-.057-.151-.114 0-.06.07-.119.115-.119.514 0 .699-.314.699-.896v-2.652c0-.62-.256-.922-.791-.922-.37 0-.884.208-1.407.665v2.91c0 .581.173.895.698.895.046 0 .115.06.115.13 0 .092-.103.103-.28.103h-2.407c-.083 0-.154-.057-.154-.114 0-.06.083-.119.128-.119.514 0 .689-.314.689-.896v-2.466c0-.49-.106-.699-.467-.839-.21-.082-.384-.049-.384-.152 0-.188.689-.126 2.062-.722v.952c.813-.626 1.487-.952 2.14-.952.862 0 1.269.491 1.269 1.491v2.688zM178.457 53.061c0 1 .244 1.465.918 1.465.688 0 .935-.524.935-1.629 0-1-.258-1.48-.922-1.48-.675 0-.931.513-.931 1.644m-1.2 4.586c0 .697.654 1.14 1.862 1.14 1.375 0 2.072-.409 2.072-1.108 0-.404-.335-.639-1.035-.674-1.154-.069-1.942-.013-2.363-.173-.36.198-.537.465-.537.815m4.345-4.716c0 1-.758 1.665-2.26 1.828-.849.094-1.34.176-1.34.594 0 .406.514.477 1.478.477 1.655 0 2.633.21 2.633 1.374 0 1.072-1.082 1.792-3.002 1.792-1.585 0-2.459-.56-2.459-1.305 0-.443.315-.779.91-.953-.328-.208-.49-.512-.49-.896 0-.756.559-1.142 1.736-1.214-1.107-.23-1.664-.79-1.664-1.604 0-.953.846-1.734 2.208-1.805.118-.977.62-1.524 1.212-1.524.35 0 .594.233.594.501 0 .372-.209.594-.547.594-.245 0-.43-.153-.583-.153-.231 0-.417.222-.451.595 1.29.104 2.025.78 2.025 1.7M192.8 52.92c.117 0 .173.032.173.103 0 .185-.232.105-.498.2-.269.093-.398.301-.398.628l-.009 2.664h-.457l-.36-.605c-.778.511-1.617.77-2.536.77-2.225 0-4.006-1.7-4.006-3.982 0-1.129.348-2.097 1.047-2.85.805-.875 1.842-1.329 2.948-1.329 1.172 0 2.047.603 2.443.603.361 0 .233-.532.441-.532.094 0 .128.057.128.21 0 1.734.036 2.664.036 2.815 0 .151-.036.234-.128.234-.197 0-.116-.49-.466-1.26-.547-1.197-1.478-1.849-2.43-1.849-1.539 0-2.529 1.431-2.529 3.945 0 2.41.99 3.762 2.572 3.762 1.317 0 1.934-.675 1.934-2.04 0-.58-.094-.907-.374-1.09-.325-.212-.709-.085-.709-.294 0-.057.058-.103.175-.103h3.002zM196.013 56.284c.046 0 .117.06.117.128 0 .094-.105.105-.28.105h-2.444c-.082 0-.153-.057-.153-.117 0-.056.071-.116.116-.116.513 0 .7-.315.7-.896V52.92c0-.49-.106-.7-.466-.837-.21-.082-.384-.05-.384-.154 0-.186.698-.116 2.084-.721v1.595c.336-1.05.907-1.595 1.55-1.595.463 0 .766.279.766.71 0 .36-.292.617-.559.617-.454 0-.558-.374-.873-.374-.43 0-.86.653-.86 1.934v1.292c0 .58.163.896.686.896M199.293 53.944c0 1.663.523 2.526 1.455 2.526.941 0 1.456-.85 1.456-2.526 0-1.664-.525-2.527-1.456-2.527-.932 0-1.455.85-1.455 2.527m4.248 0c0 1.57-1.15 2.735-2.793 2.735-1.63 0-2.782-1.165-2.782-2.735 0-1.572 1.151-2.735 2.782-2.735 1.63 0 2.793 1.163 2.793 2.735M204.29 52.083c-.21-.082-.397-.048-.397-.152 0-.188.7-.127 2.072-.723v3.936c0 .627.248.942.77.942.361 0 .884-.21 1.42-.676v-2.488c0-.491-.106-.7-.468-.84-.207-.081-.383-.047-.383-.151 0-.188.689-.127 2.061-.723v3.759c0 .49.093.687.464.828.213.08.398.058.398.163 0 .186-.7.128-2.072.723v-.967c-.816.628-1.49.977-2.13.977-.874 0-1.269-.5-1.269-1.512v-2.258c0-.49-.105-.699-.465-.838M212.376 54.782c0 1.095.267 1.677 1.048 1.677.906 0 1.571-.896 1.571-2.445 0-1.374-.65-2.178-1.49-2.178-.384 0-.756.186-1.129.535v2.41zM210.5 58.89c-.08 0-.15-.057-.15-.114 0-.153.233-.105.454-.187.293-.117.361-.35.361-.828v-4.84c0-.49-.104-.69-.489-.838-.198-.082-.362-.05-.362-.153 0-.187.687-.126 2.062-.721v.862c.675-.56 1.234-.862 1.886-.862 1.152 0 1.978.93 1.978 2.385 0 1.828-1.267 3.086-2.922 3.086-.3 0-.617-.05-.942-.14v1.22c0 .479.082.712.373.829.22.093.441.034.441.197 0 .047-.057.104-.162.104H210.5z" transform="translate(-104 -1019) translate(104 1019)"/>
                <path d="M0 0H220V82H0z" transform="translate(-104 -1019) translate(104 1019)"/>
            </g>
        </g>
    </g>
</svg>
